<?xml version="1.0" ?><svg height="512" preserveAspectRatio="xMidYMid" viewBox="0 0 512 512" width="512" xmlns="http://www.w3.org/2000/svg" xmlns:xlink="http://www.w3.org/1999/xlink"><defs><style>
      .cls-1 {
        fill: #fff;
      }

      .cls-2 {
        fill: #e11918;
      }

      .cls-2, .cls-3 {
        fill-rule: evenodd;
      }

      .cls-3 {
        fill: #000;
        opacity: 0.1;
      }
    </style></defs><circle class="cls-1" cx="256" cy="256" r="256"/><path class="cls-2" d="M256.000,512.000 C114.615,512.000 0.000,397.385 0.000,256.000 C0.000,114.615 114.615,0.000 256.000,0.000 C397.385,0.000 512.000,114.615 512.000,256.000 C512.000,397.385 397.385,512.000 256.000,512.000 ZM124.185,206.652 C111.259,200.263 101.462,205.313 101.462,205.313 C87.179,221.723 82.749,269.588 82.749,269.588 C82.749,269.588 64.574,230.760 57.352,225.399 C50.131,220.038 33.292,226.738 33.292,226.738 C31.442,297.011 38.639,315.116 38.639,315.116 C50.701,316.538 61.381,313.572 61.362,308.421 C61.343,303.269 60.026,281.639 60.026,281.639 C74.635,309.061 81.412,313.777 81.412,313.777 C89.736,309.361 104.135,311.099 104.135,311.099 C111.057,301.872 110.819,252.180 110.819,252.180 C123.714,310.919 132.205,320.472 132.205,320.472 C150.877,322.396 152.255,315.116 152.255,315.116 C147.693,297.112 132.691,210.857 124.185,206.652 ZM207.058,220.043 C199.035,211.568 187.538,214.251 182.998,214.687 C178.458,215.122 162.289,227.792 157.602,237.451 C152.914,247.109 148.048,288.762 152.255,296.369 C156.462,303.976 168.033,317.230 176.315,319.133 C181.934,320.424 202.376,325.082 224.435,312.438 C224.435,312.438 220.310,306.304 208.395,305.742 C200.788,305.384 196.006,312.007 188.345,309.760 C180.315,307.404 173.476,296.406 177.651,274.944 C177.651,274.944 204.462,279.867 209.731,276.283 C215.000,272.699 215.081,228.518 207.058,220.043 ZM279.238,301.725 C272.013,302.894 269.028,312.775 255.178,307.082 C243.842,302.422 237.635,301.762 241.811,280.300 C241.811,280.300 265.949,283.884 271.218,280.300 C276.487,276.716 283.250,224.501 275.228,216.026 C267.205,207.551 255.708,210.234 251.168,210.670 C246.628,211.105 231.795,226.453 227.108,236.112 C222.420,245.770 216.218,284.745 220.425,292.352 C224.631,299.959 236.202,313.213 244.484,315.116 C250.104,316.407 270.545,321.065 292.604,308.421 C292.604,308.421 291.014,299.820 279.238,301.725 ZM331.367,253.519 L331.367,261.554 L326.021,261.554 C326.021,261.554 320.302,214.440 326.021,181.210 C326.021,181.210 322.658,167.503 301.961,171.837 C301.961,171.837 294.454,199.891 304.634,262.893 C304.634,262.893 296.307,262.531 288.594,262.893 C280.882,263.254 282.958,274.412 287.257,274.944 C291.557,275.477 307.307,277.622 307.307,277.622 L309.981,323.150 L324.684,320.472 L324.684,274.944 L340.724,274.944 C340.724,274.944 343.408,266.755 350.080,268.249 C350.080,268.249 340.295,252.569 331.367,253.519 ZM416.913,250.841 L415.577,248.163 C415.577,248.163 404.580,239.551 400.873,244.146 C397.167,248.740 403.001,291.698 384.834,304.403 C384.834,304.403 376.818,294.576 379.487,252.180 C379.487,252.180 368.750,241.687 356.764,244.146 C354.847,244.539 343.887,321.152 379.487,317.794 C415.087,314.436 422.189,267.469 422.260,254.858 C421.949,251.032 416.913,250.841 416.913,250.841 ZM486.420,221.382 C481.153,222.253 479.139,212.455 467.706,214.687 C418.974,224.197 427.607,296.369 427.607,296.369 C427.607,296.369 416.993,297.630 418.250,303.064 C419.507,308.499 426.270,312.438 426.270,312.438 C423.346,325.718 432.953,366.000 432.953,366.000 L454.340,366.000 C442.692,346.522 448.993,312.438 448.993,312.438 C509.207,298.406 512.690,217.039 486.420,221.382 ZM450.330,291.013 C454.690,242.000 475.726,233.433 475.726,233.433 C482.589,247.947 472.276,282.734 450.330,291.013 ZM255.178,238.790 L255.178,268.249 L245.821,266.910 C245.821,266.910 245.265,246.047 255.178,238.790 ZM178.988,261.554 C177.748,251.832 184.422,241.101 187.008,240.129 C189.594,239.156 188.345,261.554 188.345,261.554 L178.988,261.554 Z"/><path class="cls-3" d="M436.999,75.012 C536.959,174.972 536.959,337.039 436.999,436.999 C337.039,536.959 174.972,536.959 75.012,436.999 "/></svg>